<?xml version="1.0" encoding="utf-8"?>
<!-- Generator: Adobe Illustrator 19.0.0, SVG Export Plug-In . SVG Version: 6.00 Build 0)  -->
<svg version="1.1" id="Layer_1" xmlns="http://www.w3.org/2000/svg" xmlns:xlink="http://www.w3.org/1999/xlink" x="0px" y="0px"
	 viewBox="0 0 40 40" enable-background="new 0 0 40 40" xml:space="preserve">
<path id="XMLID_6_" fill-rule="evenodd" clip-rule="evenodd" fill="#27AAE1" d="M24,25v6c0,0.6,0.4,1,1,1h6c0.6,0,1-0.4,1-1v-6
	c0-0.6-0.4-1-1-1h-6C24.4,24,24,24.4,24,25z M24,15V9c0-0.6-0.4-1-1-1h-6c-0.6,0-1,0.4-1,1v6c0,0.6,0.4,1,1,1h6
	C23.6,16,24,15.6,24,15z M8,25v6c0,0.6,0.4,1,1,1h6c0.6,0,1-0.4,1-1v-6c0-0.6-0.4-1-1-1H9C8.4,24,8,24.4,8,25z M37.1,0H2.9
	C1.3,0,0,1.3,0,2.9v34.1C0,38.7,1.3,40,2.9,40h34.1c1.6,0,2.9-1.3,2.9-2.9V2.9C40,1.3,38.7,0,37.1,0z M35,21h-6v1h2c1.7,0,3,1.3,3,3
	v6c0,1.7-1.3,3-3,3h-6c-1.7,0-3-1.3-3-3v-6c0-1.7,1.3-3,3-3h2v-1H13v1h2c1.7,0,3,1.3,3,3v6c0,1.7-1.3,3-3,3H9c-1.7,0-3-1.3-3-3v-6
	c0-1.7,1.3-3,3-3h2v-1H5v-2h14v-1h-2c-1.7,0-3-1.3-3-3V9c0-1.7,1.3-3,3-3h6c1.7,0,3,1.3,3,3v6c0,1.7-1.3,3-3,3h-2v1h14V21z"/>
</svg>
