<?xml version="1.0" encoding="utf-8"?>
<!-- Generator: Adobe Illustrator 19.0.0, SVG Export Plug-In . SVG Version: 6.00 Build 0)  -->
<svg version="1.1" id="Layer_1" xmlns="http://www.w3.org/2000/svg" xmlns:xlink="http://www.w3.org/1999/xlink" x="0px" y="0px"
	 viewBox="0 0 40 40" enable-background="new 0 0 40 40" xml:space="preserve">
<g>
	<path fill="#CA0265" d="M27,29h-2h-9h-2c-0.6,0-1,0.4-1,1v3h15v-3C28,29.4,27.6,29,27,29z"/>
	<path fill="#CA0265" d="M25,20c0-2.2-1.8-4-4-4h-1c-2.2,0-4,1.8-4,4v7h9V20z"/>
	<path fill="#CA0265" d="M37,0H2.9C1.3,0,0,1.3,0,2.9v34.2c0,1.6,1.3,2.9,2.9,2.8h34.2c1.6,0,2.9-1.3,2.9-2.9V2.9
		C40,1.3,38.7,0,37,0z M33.5,13.2c-1.5,0.9-3,1.7-4.5,2.6c-0.9,0.5-1.7-0.9-0.8-1.4c1.5-0.9,3-1.7,4.5-2.6
		C33.6,11.3,34.4,12.7,33.5,13.2z M24.6,11.6c0.8-1.5,1.7-3,2.6-4.5c0.5-0.9,1.9-0.1,1.4,0.8c-0.8,1.5-1.7,3-2.6,4.5
		C25.5,13.3,24.1,12.5,24.6,11.6z M19.6,5.3c0.1-1.2,1.8-1.1,1.8,0c0,1.7,0,3.7,0,5.4c0,1.1-1.8,1.1-1.8,0C19.6,8.9,19.6,7,19.6,5.3
		z M13.4,6.7c0.8,1.5,1.7,3,2.6,4.5c0.5,0.9-0.9,1.7-1.4,0.8c-0.8-1.5-1.7-3-2.6-4.5C11.5,6.6,12.9,5.7,13.4,6.7z M8,11.8
		c1.5,0.9,3,1.7,4.5,2.6c0.9,0.5,0.1,1.9-0.8,1.4c-1.5-0.9-3-1.7-4.5-2.6C6.3,12.7,7.1,11.3,8,11.8z M6,19.2c1.7,0,3.5,0,5.2,0
		c1.1,0,1.1,1.6,0,1.6c-1.7,0-3.5,0-5.2,0C5,20.8,5,19.2,6,19.2z M30,33c0,1.1-0.9,2-2,2H13c-1.1,0-2-0.9-2-2v-3c0-1.7,1.3-3,3-3v-7
		c0-3.3,2.7-6,6-6h1c3.3,0,6,2.7,6,6v7c1.7,0,3,1.3,3,3V33z M34.7,20.8c-1.7,0-3.5,0-5.2,0c-1.1,0-1.1-1.6,0-1.6c1.7,0,3.5,0,5.2,0
		C35.8,19.2,35.8,20.8,34.7,20.8z"/>
</g>
</svg>
