<?xml version="1.0" encoding="utf-8"?>
<!-- Generator: Adobe Illustrator 19.0.0, SVG Export Plug-In . SVG Version: 6.00 Build 0)  -->
<svg version="1.1" id="Layer_1" xmlns="http://www.w3.org/2000/svg" xmlns:xlink="http://www.w3.org/1999/xlink" x="0px" y="0px"
	 viewBox="0 0 40 40" enable-background="new 0 0 40 40" xml:space="preserve">
<g id="XMLID_2_">
	<g id="XMLID_37_">
		<path id="XMLID_38_" fill="#FF6600" d="M37.1,0H2.9C1.3,0,0,1.3,0,2.9V37c0,1.7,1.3,3,2.9,3H37c1.6,0,2.9-1.3,2.9-2.9V2.9
			C40,1.3,38.7,0,37.1,0z M25.3,16.4c-1,0.8-2.3-0.8-1.3-1.6c1.1-0.9,1.6-2.4,1-3.8c-0.5-1.2-1.8-2.2-3.2-2.1
			c-1.4,0.1-2.8,1-3.1,2.5c-0.3,1.6,0.3,3,1.7,3.8l0.1,0.1c0.5,0.1,1,0.7,0.7,1.4c-0.5,1.1-2.9,7-3.5,8.4c0.6,0.2,1.3,0.5,1.9,0.7
			c1.2,0.5,0.5,2.4-0.8,1.9c-0.6-0.2-1.3-0.5-1.9-0.7c-0.2,0.6-0.5,1.2-0.7,1.8c0.6,0.3,1.3,0.5,1.9,0.8c1.2,0.5,0.5,2.4-0.8,1.9
			c-0.6-0.3-1.3-0.5-1.9-0.8c-0.2,0.6-0.5,1.2-0.8,1.9c-0.5,1.2-2.4,0.4-1.9-0.8c0.5-1.1,4.7-11.5,6.2-15.1c-2-1.3-2.8-3.7-2.2-6
			c0.6-2.2,2.7-3.8,4.9-3.8c2.3-0.1,4.5,1.3,5.3,3.5C27.8,12.6,27.1,14.9,25.3,16.4z"/>
	</g>
</g>
</svg>
