<?xml version="1.0" encoding="utf-8"?>
<!-- Generator: Adobe Illustrator 19.0.0, SVG Export Plug-In . SVG Version: 6.00 Build 0)  -->
<svg version="1.1" id="Layer_1" xmlns="http://www.w3.org/2000/svg" xmlns:xlink="http://www.w3.org/1999/xlink" x="0px" y="0px"
	 viewBox="0 0 40 40" enable-background="new 0 0 40 40" xml:space="preserve">
<path id="XMLID_10_" fill-rule="evenodd" clip-rule="evenodd" fill="#783C8C" d="M12,23l8,5.1c0,0,0-2.8,0-4.2c0-4,0-11.9,0-11.9
	L12,17V23z M7,22h3v-4H7V22z M37.1,0H2.9C1.3,0,0,1.3,0,2.9v34.1C0,38.7,1.3,40,2.9,40h34.1c1.6,0,2.9-1.3,2.9-2.9V2.9
	C40,1.3,38.7,0,37.1,0z M22,29.7C22,29.7,22,29.7,22,29.7c0,0.1,0,0.1,0,0.2c0,0.1,0,0.2-0.1,0.2c0,0,0,0,0,0c0,0,0,0,0,0
	c0,0.1-0.1,0.1-0.2,0.2c-0.1,0.1-0.1,0.1-0.2,0.1c0,0,0,0,0,0c-0.1,0-0.2,0-0.3,0c0,0,0,0,0,0c-0.1,0-0.2,0-0.3,0c0,0,0,0,0,0
	c0,0-0.1,0-0.1,0c-0.1,0-0.2-0.1-0.2-0.1L11,25c0,0-0.1-0.1-0.1-0.1c0,0,0,0,0,0c-0.1-0.1-0.1-0.1-0.1-0.2c0,0,0-0.1,0-0.1
	c0-0.1,0-0.1,0-0.2c0,0,0-0.1,0-0.1c0-0.2,0-0.1,0-0.3H5.8C5.4,24,5,23.6,5,23.2v-6.4C5,16.4,5.4,16,5.8,16h4.8v-0.1c0,0,0,0,0,0
	v-0.1c0,0,0-0.1,0-0.1c0-0.1,0-0.1,0-0.1c0,0,0-0.1,0.1-0.1c0-0.1,0.1-0.1,0.1-0.2c0,0,0,0,0.1-0.1c0,0,0.1-0.1,0.1-0.1
	c0.1,0,0.2-0.1,0.2-0.1l9.5-5.7c0,0,0.1,0,0.1,0c0,0,0.1,0,0.1,0c0.1,0,0.2,0,0.2,0c0,0,0,0,0,0c0.2,0,0.4,0.1,0.5,0.2
	c0,0,0.1,0.1,0.1,0.1c0,0,0.1,0,0.1,0.1c0,0,0,0,0,0c0,0.1,0,0.1,0.1,0.2c0,0,0,0.1,0,0.1c0,0,0,0,0,0.1V29.7z M23.4,22.8
	c1.6-1.5,1.7-4.2,0.2-5.8c-0.7-0.8,0.4-1.9,1.1-1.2c2.1,2.2,2,6-0.2,8.1C23.8,24.7,22.7,23.5,23.4,22.8z M26.4,24.7
	c2.6-2.5,2.8-6.9,0.3-9.5c-0.7-0.8,0.4-1.9,1.1-1.2c3,3.3,2.9,8.7-0.3,11.8C26.8,26.6,25.6,25.4,26.4,24.7z M30.7,27.9
	c-0.8,0.7-1.9-0.4-1.2-1.1c3.6-3.5,3.9-9.8,0.4-13.5c-0.7-0.8,0.4-1.9,1.1-1.2C35.2,16.4,35,23.8,30.7,27.9z"/>
</svg>
