<?xml version="1.0" encoding="utf-8"?>
<!-- Generator: Adobe Illustrator 19.0.0, SVG Export Plug-In . SVG Version: 6.00 Build 0)  -->
<svg version="1.1" id="Layer_1" xmlns="http://www.w3.org/2000/svg" xmlns:xlink="http://www.w3.org/1999/xlink" x="0px" y="0px"
	 viewBox="0 0 40 40" enable-background="new 0 0 40 40" xml:space="preserve">
<g id="XMLID_1_">
	<path id="XMLID_3_" fill-rule="evenodd" clip-rule="evenodd" fill="#4B8EC6" d="M23,15H9c-0.6,0-1,0.4-1,1v8c0,0.6,0.4,1,1,1h14
		c0.6,0,1-0.4,1-1v-8C24,15.4,23.6,15,23,15z"/>
	<path id="XMLID_4_" fill-rule="evenodd" clip-rule="evenodd" fill="#4B8EC6" d="M27,20c0.1,0.3,0.5,1,1.2,1.5l3.8,3.3v-9.7
		l-3.8,3.3C27.5,19,27.1,19.7,27,20z"/>
	<path id="XMLID_13_" fill-rule="evenodd" clip-rule="evenodd" fill="#4B8EC6" d="M37.1,0H2.9C1.3,0,0,1.3,0,2.9v34.1
		C0,38.7,1.3,40,2.9,40h34.1c1.6,0,2.9-1.3,2.9-2.9V2.9C40,1.3,38.7,0,37.1,0z M34,25c0,1.3-0.7,1.8-1,1.9c-0.1,0.1-0.4,0.1-0.7,0.1
		c-0.4,0-0.9-0.1-1.5-0.6l-4-3.4c-0.3-0.3-0.6-0.6-0.9-0.9V24c0,1.7-1.3,3-3,3H9c-1.7,0-3-1.3-3-3v-8c0-1.7,1.3-3,3-3h14
		c1.7,0,3,1.3,3,3v1.8c0.3-0.3,0.6-0.6,0.9-0.9l4-3.4c1-0.9,1.8-0.6,2.1-0.5c0.3,0.1,1,0.6,1,1.9V25z"/>
</g>
</svg>
