<?xml version="1.0" encoding="utf-8"?>
<!-- Generator: Adobe Illustrator 19.0.0, SVG Export Plug-In . SVG Version: 6.00 Build 0)  -->
<svg version="1.1" id="Layer_1" xmlns="http://www.w3.org/2000/svg" xmlns:xlink="http://www.w3.org/1999/xlink" x="0px" y="0px"
	 viewBox="0 0 40 40" enable-background="new 0 0 40 40" xml:space="preserve">
<g id="XMLID_1_">
	<path id="XMLID_6_" fill-rule="evenodd" clip-rule="evenodd" fill="#CB0234" d="M29.2,10.1c0,0.8,0.7,1.8,1.2,2.5
		c0.5-0.8,1.1-1.9,1.3-2.7C31,9.9,29.6,9.9,29.2,10.1z"/>
	<path id="XMLID_10_" fill-rule="evenodd" clip-rule="evenodd" fill="#CB0234" d="M37.1,0H2.9C1.3,0,0,1.3,0,2.9v34.1
		C0,38.7,1.3,40,2.9,40h34.1c1.6,0,2.9-1.3,2.9-2.9V2.9C40,1.3,38.7,0,37.1,0z M12.6,11.4c1.8-3.6,7.1-5.1,10.7-3.5
		c0.4,0.2,0.6,0.8,0.3,1.2c-0.3,0.5-0.8,0.5-1.2,0.3c-0.5-0.2-1.3-0.4-2-0.4c-0.8,0-1.6,0.1-2.4,0.3c-1.6,0.5-3.1,1.4-3.9,2.9
		C13.6,13.4,12.1,12.5,12.6,11.4z M27.1,6.4c-0.5,0.9-0.9,1.9-1.4,2.8c0,0.1-0.1,0.1-0.1,0.2c0,0,0,0,0,0c0,0,0,0,0,0c0,0,0,0,0,0.1
		c0,0.1,0,0.2,0,0.4c0,0.6,0.1,1.2,0.3,1.9c0.2,0.9,0.4,1.8,0.5,2.8c0.1,0.7,0.2,1.4,0,2.1c-0.4,1.1-0.8,2.1-1.2,3.2
		c-1.3,3.3-2.6,6.7-4,10c-0.3,0.6-0.5,1.3-0.8,1.9c-0.2,0.5-0.4,1.1-0.8,1.5c-0.6,0.7-1.3,1.4-2.2,1.6c-0.6,0.1-1-0.1-1.5-0.4
		c-1-0.5-2-0.9-3.1-1.4c-1.1-0.5-2.4-0.8-3.2-1.7C8.3,29.7,9.3,28,10,26.4c1.5-3.5,3-7.1,4.8-10.5c0.6-1.2,1.2-2.6,2.2-3.5
		c0.6-0.6,1.3-1,2-1.3c0.8-0.4,1.7-0.9,2.5-1.1c1.1-0.3,1.6,1.4,0.5,1.7c-0.8,0.2-1.5,0.6-2.2,1c-0.4,0.2-0.8,0.4-1.1,0.7
		c0,0-0.1,0.1-0.1,0.1c0,0-0.1,0.1-0.1,0.1c-0.1,0.1-0.1,0.1-0.2,0.2c0,0-0.1,0.2-0.2,0.2c-0.1,0.1-0.1,0.2-0.2,0.2
		c-0.2,0.3-0.3,0.5-0.5,0.8c-0.4,0.7-0.8,1.4-1.1,2.1c-1.7,3.4-3.2,6.9-4.8,10.4c-0.1,0.3-0.3,0.6-0.4,0.9c-0.1,0.1-0.1,0.3-0.2,0.4
		c0,0.1-0.1,0.2-0.1,0.3c0,0,0,0.3,0,0.2c0,0.4,0,0.4,0.2,0.7c0.4,0.3,0.8,0.6,1.3,0.8c1.6,0.7,3.3,1.4,4.9,2.2c0,0,0,0,0,0
		c0,0,0.1-0.1,0.1,0c0,0,0,0,0.1,0c0.1,0,0.3-0.2,0.3-0.2c0.5-0.4,0.8-0.9,1-1.4c0.2-0.4,0.3-0.7,0.5-1.1c0,0,0-0.1,0-0.1
		c0,0,0-0.1,0.1-0.1c0.1-0.1,0.1-0.3,0.2-0.4c0.1-0.3,0.2-0.6,0.3-0.8c1.1-2.7,2.2-5.4,3.2-8c0.5-1.3,1-2.6,1.5-4
		c0.1-0.2,0.1-0.4,0.2-0.6c0-0.1,0.1-0.1,0.1-0.2c0-0.1,0-0.1,0-0.2c0-0.8-0.2-1.4-0.3-2.3c-0.2-0.9-0.4-1.8-0.5-2.7
		c-0.1-0.7-0.2-1.5,0.1-2.1c0.5-1,1-2,1.5-3C26.1,4.4,27.6,5.3,27.1,6.4z M32.4,12.7c-0.4,0.8-1,2.3-2.1,2.2
		c-1.1-0.1-1.8-1.7-2.2-2.6c-0.3-0.7-1.2-2.4-0.4-3.2c0,0,0,0,0,0c0.6-0.9,2.2-0.8,3.1-0.9c1-0.1,2.3-0.2,2.6,1.1
		C33.7,10.4,32.9,11.7,32.4,12.7z"/>
	<path id="XMLID_16_" fill-rule="evenodd" clip-rule="evenodd" fill="#CB0234" d="M29.2,10.1C29.2,10.1,29.2,10.1,29.2,10.1
		C29.2,10.1,29.2,10.1,29.2,10.1C29.2,10,29.2,10.1,29.2,10.1z"/>
</g>
</svg>
