<?xml version="1.0" encoding="utf-8"?>
<!-- Generator: Adobe Illustrator 19.0.0, SVG Export Plug-In . SVG Version: 6.00 Build 0)  -->
<svg version="1.1" id="Layer_1" xmlns="http://www.w3.org/2000/svg" xmlns:xlink="http://www.w3.org/1999/xlink" x="0px" y="0px"
	 viewBox="0 0 40 40" enable-background="new 0 0 40 40" xml:space="preserve">
<path id="XMLID_6_" fill-rule="evenodd" clip-rule="evenodd" fill="#009900" d="M16,10.5c0-0.3-0.2-0.5-0.5-0.5h-4
	c-0.3,0-0.5,0.2-0.5,0.5V12h5V10.5z M29,10.5c0-0.3-0.2-0.5-0.5-0.5h-4c-0.3,0-0.5,0.2-0.5,0.5V12h5V10.5z M32,14H8
	c-0.6,0-1,0.4-1,1v14c0,0.6,0.4,1,1,1h24c0.6,0,1-0.4,1-1V15C33,14.4,32.6,14,32,14z M14,20h-1v1h-1v-1h-1v-1h1v-1h1v1h1V20z M28,20
	h-3v-1h3V20z M37.1,0H2.9C1.3,0,0,1.3,0,2.9v34.1C0,38.7,1.3,40,2.9,40h34.1c1.6,0,2.9-1.3,2.9-2.9V2.9C40,1.3,38.7,0,37.1,0z
	 M35,29c0,1.7-1.3,3-3,3H8c-1.7,0-3-1.3-3-3V15c0-1.7,1.3-3,3-3h1v-1.5C9,9.1,10.1,8,11.5,8h4c1.4,0,2.5,1.1,2.5,2.5V12h4v-1.5
	C22,9.1,23.1,8,24.5,8h4c1.4,0,2.5,1.1,2.5,2.5V12h1c1.7,0,3,1.3,3,3V29z"/>
</svg>
