<?xml version="1.0" encoding="utf-8"?>
<!-- Generator: Adobe Illustrator 19.0.0, SVG Export Plug-In . SVG Version: 6.00 Build 0)  -->
<svg version="1.1" id="Layer_1" xmlns="http://www.w3.org/2000/svg" xmlns:xlink="http://www.w3.org/1999/xlink" x="0px" y="0px"
	 viewBox="0 0 40 40" enable-background="new 0 0 40 40" xml:space="preserve">
<path id="XMLID_12_" fill-rule="evenodd" clip-rule="evenodd" fill="#FFCD00" d="M12.4,8l-7,11.8l7,12.2h15.3l7.1-12.1L27.4,8H12.4z
	 M16.5,18.3c0.5,0,0.8,0,0.9,0l-0.1,2c-0.3,0-0.5,0-0.8,0c-1,0-2.9,0.3-3.4,1.8c-0.3,1,0.1,2.1,1,2.7c0.5,0.4,2,1.1,4-0.4l1.2,1.6
	c-1.2,0.9-2.4,1.2-3.5,1.2c-1.1,0-2.1-0.4-2.8-0.9c-1.6-1.2-2.3-3.2-1.7-5c0.3-1.1,1-1.8,1.7-2.3c-1.2-0.8-1.9-2.1-1.9-3.7
	c0-3,2.5-4.6,4.9-4.6c2,0,3.4,1.5,3.5,1.5l-0.7,0.7l-0.7,0.7c0,0-0.9-0.9-2-0.9c-0.8,0-2.9,0.5-2.9,2.6C13,17.6,14.8,18.2,16.5,18.3
	z M28.3,20.1c-1.5,0-2.7,1.2-2.7,2.7c0,1.5,1.2,2.7,2.7,2.7v2c-1.6,0-3-0.8-3.8-2c-0.8,1.2-2.2,2-3.8,2v-2c1.5,0,2.7-1.2,2.7-2.7
	c0-1.5-1.2-2.7-2.7-2.7v-2c1.6,0,3,0.8,3.8,2c0.8-1.2,2.2-2,3.8-2V20.1z M37.1,0H2.9C1.3,0,0,1.3,0,2.9v34.1C0,38.7,1.3,40,2.9,40
	h34.1c1.6,0,2.9-1.3,2.9-2.9V2.9C40,1.3,38.7,0,37.1,0z M28.7,34H11.2L3,19.8L11.3,6h17.2L37,19.9L28.7,34z"/>
</svg>
