<?xml version="1.0" encoding="utf-8"?>
<!-- Generator: Adobe Illustrator 19.0.0, SVG Export Plug-In . SVG Version: 6.00 Build 0)  -->
<svg version="1.1" id="Layer_1" xmlns="http://www.w3.org/2000/svg" xmlns:xlink="http://www.w3.org/1999/xlink" x="0px" y="0px"
	 viewBox="0 0 40 40" enable-background="new 0 0 40 40" xml:space="preserve">
<g id="XMLID_2_">
	<path id="XMLID_13_" fill-rule="evenodd" clip-rule="evenodd" fill="#555555" d="M30,7H10C9.4,7,9,7.4,9,8v24c0,0.6,0.4,1,1,1h20
		c0.6,0,1-0.4,1-1V8C31,7.4,30.6,7,30,7z M15,28c0,0.6-0.4,1-1,1s-1-0.4-1-1v-2c0-0.6,0.4-1,1-1s1,0.4,1,1V28z M19,28
		c0,0.6-0.4,1-1,1s-1-0.4-1-1v-2c0-0.6,0.4-1,1-1s1,0.4,1,1V28z M23,28c0,0.6-0.4,1-1,1s-1-0.4-1-1v-2c0-0.6,0.4-1,1-1s1,0.4,1,1V28
		z M19,22l1-5h-2l4-6l-1,5h2L19,22z M27,28c0,0.6-0.4,1-1,1s-1-0.4-1-1v-2c0-0.6,0.4-1,1-1s1,0.4,1,1V28z"/>
	<path id="XMLID_21_" fill-rule="evenodd" clip-rule="evenodd" fill="#555555" d="M37.1,0H2.9C1.3,0,0,1.3,0,2.9v34.1
		C0,38.7,1.3,40,2.9,40h34.1c1.6,0,2.9-1.3,2.9-2.9V2.9C40,1.3,38.7,0,37.1,0z M33,32c0,1.7-1.3,3-3,3H10c-1.7,0-3-1.3-3-3V8
		c0-1.7,1.3-3,3-3h20c1.7,0,3,1.3,3,3V32z"/>
</g>
</svg>
