<?xml version="1.0" encoding="utf-8"?>
<!-- Generator: Adobe Illustrator 19.0.0, SVG Export Plug-In . SVG Version: 6.00 Build 0)  -->
<svg version="1.1" id="Layer_1" xmlns="http://www.w3.org/2000/svg" xmlns:xlink="http://www.w3.org/1999/xlink" x="0px" y="0px"
	 viewBox="0 0 40 40" enable-background="new 0 0 40 40" xml:space="preserve">
<path fill="#9ABF1E" d="M37.1,0H2.9C1.3,0,0,1.3,0,2.9V37c0,1.7,1.3,3,2.9,3H37c1.6,0,2.9-1.3,2.9-2.9V2.9C40,1.3,38.7,0,37.1,0z
	 M29.8,30c-1.9,1.5-4.6,1.3-6.9,1c0,0.9,0.5,1.8,0.4,2.6c0,1.2-1.6,1.9-2.3,0.7c-0.3-0.6-0.2-1.6-0.2-2.2c0-0.7-0.2-1.7,0.1-2.4
	c0.5-1.2,1.6-0.9,2.6-0.8c1.1,0.1,2.3,0.3,3.4,0c0.9-0.2,1.9-0.7,1.5-1.6c-0.1-0.3-0.5-0.6-0.7-0.9c-0.4-0.6-0.6-1.2-0.9-1.9
	c-0.6-1.5-0.8-3.1-0.7-4.7c0-1.6,0.2-3.1,0.5-4.6c0.3-1.4,1.1-3.4,0.9-4.8c-0.3-2.6-3.5-3.8-5.7-2.8c-1.5,0.7-1.7,1.9-2.2,3.4
	c-0.5,1.6-1,3.2-1.7,4.7c-1.2,2.5-2.7,5-5.1,6.3c-0.6,0.3-1.6,0.5-1.8,1.1c-0.2,0.6,0.5,1.2,0.9,1.6c1.2,1.1,2.6,1.6,4,2.2
	c1,0.4,3.8,0.8,3.4,2.3C19,31,13.2,27.9,12,27.2c-1.8-1.1-4.2-3.9-2.1-5.9c0.9-0.8,2.1-1,3.1-1.8c1-0.8,1.8-2,2.5-3.1
	c1.4-2.4,2.1-5.1,2.9-7.8c0.8-2.8,4.6-4,7.2-3.2c2.5,0.8,4.6,3.3,4.1,6c-0.7,3.4-1.7,6.8-1.3,10.3c0.2,1.6,0.8,3.1,1.7,4.4
	C31.1,27.3,31,29,29.8,30z"/>
</svg>
