<?xml version="1.0" encoding="utf-8"?>
<!-- Generator: Adobe Illustrator 19.0.0, SVG Export Plug-In . SVG Version: 6.00 Build 0)  -->
<svg version="1.1" id="Layer_1" xmlns="http://www.w3.org/2000/svg" xmlns:xlink="http://www.w3.org/1999/xlink" x="0px" y="0px"
	 viewBox="0 0 40 40" enable-background="new 0 0 40 40" xml:space="preserve">
<path id="XMLID_10_" fill-rule="evenodd" clip-rule="evenodd" fill="#A16631" d="M37.1,0H2.9C1.3,0,0,1.3,0,2.9v34.1
	C0,38.7,1.3,40,2.9,40h34.1c1.6,0,2.9-1.3,2.9-2.9V2.9C40,1.3,38.7,0,37.1,0z"/>
<g id="XMLID_5_">
	<path id="XMLID_8_" fill="#FFFFFF" d="M22.3,15.4L19,14c-0.4-0.2-0.9,0-1.1,0.4l-6.7,15.6c-0.2,0.4-0.2,0.9,0,1.3
		c0.2,0.4,0.5,0.8,0.9,0.9l1.7,0.7c0.2,0.1,0.5,0.1,0.7,0.1c0.2,0,0.4-0.1,0.6-0.1c0.4-0.2,0.7-0.5,0.9-0.9l6.7-15.7
		c0.1-0.2,0.1-0.4,0-0.6C22.7,15.7,22.5,15.5,22.3,15.4z M14.6,31.5C14.6,31.5,14.5,31.6,14.6,31.5l-1.8-0.7c0,0,0-0.1,0-0.1
		l6.4-14.9l1.8,0.8L14.6,31.5z"/>
	<path id="XMLID_17_" fill="#FFFFFF" d="M30.9,10.5c-0.1-0.2-0.2-0.4-0.4-0.4l-4.2-1.7L26,9.1l0.3-0.8c0,0,0-0.1,0-0.2
		c0.1-0.4-0.1-0.8-0.5-1l-2.5-1c-0.4-0.2-0.9,0-1.1,0.4l-0.1,0.1l-2-0.7c-0.2-0.1-0.4-0.1-0.6,0L14,8.3c-0.3,0.1-0.5,0.4-0.5,0.7
		c0,0.3,0.2,0.6,0.5,0.8l5.1,2.1c0,0,0,0.1,0,0.1c-0.1,0.2-0.1,0.4,0,0.6c0.1,0.2,0.2,0.4,0.4,0.4l3.3,1.4c0.2,0.1,0.5,0.1,0.7,0
		c0.2-0.1,0.3-0.3,0.4-0.5c0,0,0,0,0.1,0l4.2,1.7c0.1,0,0.2,0.1,0.3,0.1c0.3,0,0.6-0.2,0.7-0.5l1.8-4.1C31,10.9,31,10.7,30.9,10.5z
		 M28,13.9l-3.4-1.4c-0.3-0.1-0.5-0.2-0.8-0.2c-0.3,0-0.5,0.1-0.7,0.2c-0.1,0.1-0.2,0.1-0.2,0.2l-2-0.8c0,0,0-0.1,0-0.1
		c0.2-0.4,0-0.9-0.4-1l-4-1.7L20,7.7l2.4,0.8c0.4,0.1,0.8-0.1,1-0.5l0-0.1l1.2,0.5c0.1,0.5,0.3,1.1,1,1.4l3.4,1.4L28,13.9z"/>
</g>
</svg>
